<svg width="48" height="48" viewBox="0 0 48 48" fill="none" xmlns="http://www.w3.org/2000/svg">
<circle cx="24" cy="24" r="24" fill="#212B36"/>
<path fill-rule="evenodd" clip-rule="evenodd" d="M15.9081 27.1188C16.5222 27.1188 17.02 27.7774 17.02 28.5898C17.02 29.4022 16.5222 30.0608 15.9081 30.0608C15.294 30.0608 14.7962 29.4022 14.7962 28.5898C14.7962 27.7774 15.294 27.1188 15.9081 27.1188ZM31.3056 27.1188C31.9197 27.1188 32.4175 27.7774 32.4175 28.5898C32.4175 29.4022 31.9197 30.0608 31.3056 30.0608C30.6915 30.0608 30.1936 29.4022 30.1936 28.5898C30.1936 27.7774 30.6915 27.1188 31.3056 27.1188ZM23.5988 32.9595C20.6922 32.9515 19.2438 32.3409 19.2438 33.0028C19.2438 33.3019 20.6306 34.5223 23.5988 34.5171C26.6041 34.5117 27.9509 33.301 27.9539 33.0028C27.9605 32.3406 26.5251 32.9676 23.5988 32.9595ZM23.5988 20.0667C16.9227 20.0875 11.0332 25.9222 10.9508 29.7147C10.8614 33.8292 16.4248 36.5457 23.5988 36.5505C30.5037 36.5552 36.292 34.1681 36.2006 29.7133C36.1175 25.6644 30.2713 20.0458 23.5988 20.0667Z" fill="#FFBCAB"/>
<path fill-rule="evenodd" clip-rule="evenodd" d="M6.94021 12L15.9031 21.1361C15.9031 21.1361 11.3805 21.5262 8.88866 18.668C6.24309 15.6335 6.94021 12 6.94021 12ZM3 19.2309L12.6557 24.0371C12.6557 24.0371 9.65232 25.7431 6.55052 24.167C3.21619 22.4727 3 19.2309 3 19.2309ZM3.0433 26.765L11.3134 27.5443C11.3134 27.5443 9.37426 29.4235 7.1134 29.3629C4.52988 29.2936 3.0433 26.765 3.0433 26.765ZM41.0598 12L32.0969 21.1361C32.0969 21.1361 36.6195 21.5262 39.1113 18.668C41.7569 15.6335 41.0598 12 41.0598 12ZM45 19.2309L35.3443 24.0371C35.3443 24.0371 38.3477 25.7431 41.4495 24.167C44.7839 22.4727 45 19.2309 45 19.2309ZM44.9567 26.765L36.6866 27.5443C36.6866 27.5443 38.6257 29.4235 40.8866 29.3629C43.4701 29.2936 44.9567 26.765 44.9567 26.765Z" fill="#FFA5B5"/>
</svg>
